<svg xmlns="http://www.w3.org/2000/svg" viewBox="0 0 512.42 1380.69"><title>bernard</title><path d="M250.31,992.94c63.79,0,115.49-24.49,115.49-54.7s-51.7-54.71-115.49-54.71S134.82,908,134.82,938.24,186.53,992.94,250.31,992.94Z" transform="translate(0 0)" fill="#090b08"/><path d="M335.49,1147.94v168" transform="translate(0 0)" fill="none" stroke="#dce1e9" stroke-linecap="round" stroke-linejoin="bevel" stroke-width="54"/><path d="M199.44,1147.94,216.17,1301" transform="translate(0 0)" fill="none" stroke="#dce1e9" stroke-linecap="round" stroke-linejoin="bevel" stroke-width="54"/><path d="M191,1283.4c-3.55-5.47-8.81-5.75-13.08-8.89-2.09,3-1.93,7.35-3.83,13.2l-12.31,15.2-21.41,22.93L120,1336.91l12.3,14.19C140.5,1344.67,187.27,1294.87,191,1283.4Z" transform="translate(0 0)" fill="#3b3937"/><path d="M263.3,1358.55s.46-24.87-4.95-38.6-11.17-49.19-11.17-49.19-9.3,10.15-26.78,10.3l-32.94.29s-28.67,40-37.1,45.4-56.17,15.79-56.17,15.79a16.42,16.42,0,0,0-16.27,16.57l.07,8.35,99.57-.87Z" transform="translate(0 0)" fill="#1c1b19"/><path d="M119.52,1345.52C107,1347.13,91,1347.77,88,1343.8l20.44-6.18,26.91-10.74,7,3.44-1,3,15.08,9.37-6.42,9.06-.1,0C145.05,1349.56,132.13,1343.9,119.52,1345.52Z" transform="translate(0 0)" fill="#303030"/><path d="M180,1288.66l-5.31-2.07a3.18,3.18,0,1,0-2.31,5.92l5.32,2.07a3.18,3.18,0,0,0,2.3-5.92Z" transform="translate(0 0)" fill="#1c1b19"/><path d="M172.08,1297.73l-5.31-2.07a3.18,3.18,0,1,0-2.31,5.92l5.32,2.07a3.18,3.18,0,0,0,2.3-5.92Z" transform="translate(0 0)" fill="#1c1b19"/><path d="M165.16,1306.79l-5.31-2.07a3.18,3.18,0,1,0-2.31,5.92l5.32,2.07a3.18,3.18,0,0,0,2.3-5.92Z" transform="translate(0 0)" fill="#1c1b19"/><path d="M157.24,1315.86l-5.31-2.07a3.18,3.18,0,1,0-2.31,5.92l5.31,2.07a3.18,3.18,0,1,0,2.31-5.92Z" transform="translate(0 0)" fill="#1c1b19"/><path d="M145.33,1325l-5.32-2.08a3.18,3.18,0,1,0-2.32,5.92l5.32,2.08a3.18,3.18,0,0,0,2.32-5.92Z" transform="translate(0 0)" fill="#1c1b19"/><path d="M264.5,1357.51l-93.71,5-93.25-3.42-1.36,12.2a6.35,6.35,0,0,0,6.15,7.06l86.68,2.19,48.38.1,48.36-2Z" transform="translate(0 0)" fill="#303030"/><path d="M361,1282.4c3.55-5.47,8.81-5.75,13.08-8.89,2.09,3,1.93,7.35,3.83,13.2l12.31,15.2,21.41,22.93,20.4,11.07-12.3,14.19C411.47,1343.67,364.7,1293.87,361,1282.4Z" transform="translate(0 0)" fill="#3b3937"/><path d="M288.67,1357.55s-.46-24.87,4.95-38.6,11.17-49.19,11.17-49.19,9.3,10.15,26.78,10.3l32.94.29s28.67,40,37.1,45.4,56.17,15.79,56.17,15.79a16.43,16.43,0,0,1,16.28,16.57l-.08,8.35-99.57-.87Z" transform="translate(0 0)" fill="#1c1b19"/><path d="M432.45,1344.52c12.49,1.61,28.48,2.25,31.52-1.72l-20.45-6.18-26.91-10.74-7,3.44,1,3-15.08,9.37,6.42,9.06.1,0C406.92,1348.56,419.84,1342.9,432.45,1344.52Z" transform="translate(0 0)" fill="#303030"/><path d="M374.27,1293.58l5.32-2.07a3.18,3.18,0,1,0-2.31-5.92l-5.31,2.07a3.18,3.18,0,1,0,2.3,5.92Z" transform="translate(0 0)" fill="#1c1b19"/><path d="M382.19,1302.65l5.32-2.07a3.18,3.18,0,1,0-2.31-5.92l-5.31,2.07a3.18,3.18,0,1,0,2.3,5.92Z" transform="translate(0 0)" fill="#1c1b19"/><path d="M389.12,1311.71l5.31-2.07a3.18,3.18,0,1,0-2.31-5.92l-5.31,2.07a3.18,3.18,0,1,0,2.31,5.92Z" transform="translate(0 0)" fill="#1c1b19"/><path d="M397,1320.78l5.31-2.07a3.18,3.18,0,1,0-2.31-5.92l-5.31,2.07a3.18,3.18,0,1,0,2.31,5.92Z" transform="translate(0 0)" fill="#1c1b19"/><path d="M409,1329.89l5.32-2.08a3.18,3.18,0,1,0-2.32-5.92l-5.31,2.08a3.18,3.18,0,1,0,2.31,5.92Z" transform="translate(0 0)" fill="#1c1b19"/><path d="M287.47,1356.51l93.71,5,93.25-3.42,1.36,12.2a6.35,6.35,0,0,1-6.15,7.06L383,1379.59l-48.37.1-48.37-2Z" transform="translate(0 0)" fill="#303030"/><polygon points="126.17 877.02 261.17 877.02 256.17 1236.82 248.17 1265.02 171.67 1261.02 160.05 1230.32 126.17 877.02" fill="#090b08"/><polygon points="259.88 883.04 395.34 883.04 390.17 1229.02 379.17 1258.02 301.17 1271.44 293.91 1237.02 259.88 883.04" fill="#090b08"/><polygon points="163.67 1253.02 250.17 1253.02 255.17 1261 250.17 1277.02 230.17 1283.5 171.17 1283.5 167.67 1277.02 169.67 1268 161.67 1266 163.67 1253.02" fill="#090b08"/><polygon points="298.17 1253.02 387.17 1254.5 379.67 1270.5 381.17 1279 359.67 1282 336.67 1282 293.67 1277 298.17 1253.02" fill="#090b08"/><rect x="86.16" y="565.53" width="16.69" height="109.87" transform="translate(-524.8 518.61) rotate(-72)" fill="#f1eded"/><rect x="361.15" y="632.74" width="109.87" height="16.69" transform="translate(-177.74 159.95) rotate(-18)" fill="#f1eded"/><path d="M128.72,549.14a65,65,0,0,1,62.79-63.33l80.33-2.63a117.59,117.59,0,0,1,19.58,1l78.41,10.85a64.93,64.93,0,0,1,55.72,70.8L410.72,713.74l7.44,211.88c.07,1.81-86.18.09-88,0H191.51L112.7,913.73a3.1,3.1,0,0,1-2.92-3.35l15.4-215Z" transform="translate(0 0)" fill="#d9d9e3"/><path d="M259.17,574c39.21,0,71-32.46,71-72.5s-31.79-72.5-71-72.5-71,32.46-71,72.5S220,574,259.17,574Z" transform="translate(0 0)" fill="#e9e9f0"/><path d="M58.17,543.5c10.4-32,25.66-37.67,32-36.5l76.5,320c-7,25-32.1,68.4-76.5,42-55.5-33-93-108-90-130.5S45.17,583.5,58.17,543.5Z" transform="translate(0 0)" fill="#1b1b1b"/><path d="M468.17,517c-9.6-6-57-20.17-81-28,4.5,121.83,14.1,368,22.5,368,10.5,0,76.5-54,97.5-85.5S480.17,524.5,468.17,517Z" transform="translate(0 0)" fill="#1b1b1b"/><path d="M245.17,743c-.8-67.16-13-90.85-13-123-5.5-21.5-12.5-46-17.5-49-53.5-54.5-5-82.5-.5-104,0,0-7.5-1.93-8-2s-7-2-7-2a177.91,177.91,0,0,0-22.5,20.5c-11,12-88.5,22.5-88.5,22.5,0,2.5,9.83,62.58,6.07,167.5s3.92,207.94,0,255.18c16.45,4.76,108.86,20.62,162.93,3.7C257.17,864.69,246.34,842.42,245.17,743Z" transform="translate(0 0)" fill="#1b1b1b"/><path d="M89.17,816c5.2-14.4,16.33-18.17,24.5-19.5V931c-12.84-2.17-24.1-1.6-36.5-12-15.5-13-18.5-59-13.5-74.5S82.67,834,89.17,816Z" transform="translate(0 0)" fill="#333131"/><path d="M199,917c-19.82,1.6-65.48-14-85.83-22v34c11.5,10,41.34,13.15,57.51,16,28.32,5,53.09,0,88.49-6l-1.77-30.5C245,911.52,218.82,915.42,199,917Z" transform="translate(0 0)" fill="#2c2a2a"/><path d="M162.67,495.5c6-7.6,26.5-24.83,36-32.5l15.5,4c-.5,1.5-2,5.6-4,10-2.5,5.5-17.5,20.21-20.5,39.5-3.5,22.5,18.5,47.5,25.5,55s10,22,14,36.5,3.5,37,9,54,7.5,64.5,7.5,84.5,2,73.5,4.5,86c2,10,7.5,85.67,9,107l-22.5,2.5c-6.5-104.83-24-348.7-38-367.5s-54.17-16.5-72.5-13c6-9.5,18.9-30.7,22.5-39.5C153.17,511,155.17,505,162.67,495.5Z" transform="translate(0 0)" fill="#090b08"/><path d="M279.87,755.5c.74-65-10.94-77.5,0-109.5,13.5-39.5,8-48,24.5-86,3.58-26.6,38.5-54,0-92.52l15.8-3.5,66.56,24.64c6,2.24,11,6.1,12.64,12.33,6.64,24.77,19.07,97.9,21.93,180.18,3.54,101.52,8.88,205.89,12.57,251.6-28.76,4.09-64,14.75-114,10.75C304.37,883,278.76,851.7,279.87,755.5Z" transform="translate(0 0)" fill="#1b1b1b"/><path d="M383.42,581.39c-8.44,3.51-45.13,5.56-62.42,7v25.46c3.81.29,13.33,0,21.1,0,12.31,0,42.49-5.56,58.9-8.78V577S389.57,578.83,383.42,581.39Z" transform="translate(0 0)" fill="#bb2521"/><path d="M447.17,855.5c-4-15.2-17-48.33-23-63l-10.5,115C426.5,896.5,451.17,870.7,447.17,855.5Z" transform="translate(0 0)" fill="#1b1b1b"/><path d="M335.17,465l-15-1.5-16,4c1.5,1.33,6.1,6.2,12.5,15,8,11,7.5,30,0,43s-12,32-12.5,35-2.5,7.5-6.5,13.5c-3.2,4.8-5.34,19.33-6,26,4.83-11.5,15.6-35.5,20-39.5s38.83-17.33,55.5-23.5c-1-1.5-5-6.5-13-14.5S338.17,480.83,335.17,465Z" transform="translate(0 0)" fill="#090b08"/><path d="M374.17,913c19-2.23,39-1.48,58-17l2,35c-20,5-42.06,8.52-49.5,9.48-15.5,2-25,5.5-64.5,2L310.67,912C324.67,915,348.67,916,374.17,913Z" transform="translate(0 0)" fill="#2c2a2a"/><circle cx="219.67" cy="615.5" r="7.5" fill="#48494d"/><circle cx="232.67" cy="694.5" r="7.5" fill="#48494d"/><circle cx="235.67" cy="765.5" r="7.5" fill="#48494d"/><circle cx="239.67" cy="840.5" r="7.5" fill="#48494d"/><circle cx="246.67" cy="913.5" r="7.5" fill="#48494d"/><path d="M192,559h9.5" transform="translate(0 0)" fill="none" stroke="#1b1b1b" stroke-width="3"/><rect x="214.17" y="423.02" width="90" height="119" rx="37.91" fill="#ebbaaa"/><path d="M389.43,351.56a59.27,59.27,0,1,0-59.26-59.27A59.27,59.27,0,0,0,389.43,351.56Z" transform="translate(0 0)" fill="#ebbaaa"/><path d="M130.43,354.56a59.27,59.27,0,1,1,59.27-59.27A59.27,59.27,0,0,1,130.43,354.56Z" transform="translate(0 0)" fill="#ebbaaa"/><path d="M107.17,168.32a151.29,151.29,0,1,1,302.52,4.35l-2,70.35L404,353A120,120,0,0,1,284.08,469H236.5A120,120,0,0,1,116.92,359.08L107.17,243Z" transform="translate(0 0)" fill="#f4d4c9"/><path d="M231.43,396.75c19.59,10.89,42.71,10.6,67.65.4a7.7,7.7,0,0,0-5.83-14.25c-20.93,8.56-39.24,8.78-54.34.39a7.7,7.7,0,0,0-7.48,13.46Z" transform="translate(0 0)" fill="#c99584"/><path d="M266.28,119.92c-76.2,0-137.68,0-141.72,55.54-6,82.73-20.41,89.38-31.32,51-1.66-5.85-13.16-45-13.4-51,0-160.28,174.83-212.94,238.83-148.94C357.61,58.21,342.5,119.92,266.28,119.92Z" transform="translate(0 0)" fill="#272727"/><path d="M210.67,141c15.6-2.8,56.5-10.5,77-23-57.5-6-171.6-11.9-168,12.5C124.17,161,191.17,144.52,210.67,141Z" transform="translate(0 0)" fill="#272727"/><path d="M101.18,171.23c-.27-6.12,4.95-11.21,11.49-11.21,6.78,0,12.09,5.46,11.44,11.78L113.29,278.87a3.74,3.74,0,0,1-7.41-.18Z" transform="translate(0 0)" fill="#272727"/><path d="M416.16,170.77c.26-5.86-5-10.75-11.49-10.75-6.78,0-12.09,5.24-11.45,11.3L404.05,274a3.76,3.76,0,0,0,7.41-.17Z" transform="translate(0 0)" fill="#272727"/><path d="M317.67,106c32-22,73.46,21.63,76.7,78.2,8,44.36,23.24,112.24,41.8-19.7-4.44-117.88-98.5-147-133-133C263,63.21,239.14,106,317.67,106Z" transform="translate(0 0)" fill="#272727"/><path d="M323.67,265v1" transform="translate(0 0)" fill="none" stroke="#000" stroke-linecap="round" stroke-width="24"/><path d="M194.67,265v1" transform="translate(0 0)" fill="none" stroke="#000" stroke-linecap="round" stroke-width="24"/><path d="M304.68,225.83,362,225a12,12,0,0,0-.33-24l-57.31.8a12,12,0,1,0,.34,24Z" transform="translate(0 0)" fill="#393939"/><path d="M217.83,202l-57.3.9a12,12,0,0,0,.37,24l57.31-.91a12,12,0,1,0-.38-24Z" transform="translate(0 0)" fill="#393939"/><path d="M251.89,299.83c-6.07,10.72-9.61,22.42-9.16,32,.63,13.12,8.87,21.94,22.74,21.94v-17c-4.34,0-5.54-1.29-5.76-5.75-.28-5.94,2.35-14.64,7-22.79Z" transform="translate(0 0)" fill="#ebbaaa"/><path d="M274.76,290.61l-1.57-20.16s10.19-22.89,51.14-27.73,59.06,20.35,59.06,20.35l-3.17,29.46a38,38,0,0,1-38.81,33.92l-29.79-.8A38,38,0,0,1,274.76,290.61Z" transform="translate(0 0)" fill="#fff" fill-opacity="0.44"/><path d="M239.09,289.83l1.34-19.16S230.25,248.28,190,243.86s-57.8,20.43-57.8,20.43l3.27,28.24a38,38,0,0,0,39.07,33.61l27.95-1A38,38,0,0,0,239.09,289.83Z" transform="translate(0 0)" fill="#fff" fill-opacity="0.44"/><path d="M279,305.72l-5.9-38.17a8.07,8.07,0,0,1,2.58-7.58c6-5,20.68-14.67,47.77-18.17,27.86-3.6,47.8,5.83,56.09,10.83a8.6,8.6,0,0,1,4,8l-1,18.9" transform="translate(0 0)" fill="none" stroke="#000" stroke-width="8"/><path d="M235,305.33l5.48-37.43a8.07,8.07,0,0,0-2.65-7.56c-6-4.88-20.44-14.18-47-17.4-27.29-3.3-46.75,6.05-54.89,11a8.61,8.61,0,0,0-3.92,8l1.18,18.44" transform="translate(0 0)" fill="none" stroke="#000" stroke-width="8"/><path d="M238,269.91c10.5-5,22.5-7,35,0" transform="translate(0 0)" fill="none" stroke="#000" stroke-width="7"/></svg>