<svg xmlns="http://www.w3.org/2000/svg" xmlns:xlink="http://www.w3.org/1999/xlink" viewBox="0 0 554.54 1326.72"><defs><mask id="a" x="237.34" y="753.91" width="87" height="104.3" maskUnits="userSpaceOnUse"><g transform="translate(-0.91)"><rect x="252.3" y="767.96" width="58.89" height="76.2" rx="6.02" fill="#fff"/></g></mask><mask id="b" x="223.5" y="359.14" width="89.59" height="74.49" maskUnits="userSpaceOnUse"><g transform="translate(-0.91)"><path d="M224.41,359.14v16.11a44.8,44.8,0,0,0,89.6,0V359.14Z" fill="#fff" fill-rule="evenodd"/></g></mask><mask id="c" x="221.83" y="357.35" width="97.37" height="62.7" maskUnits="userSpaceOnUse"><g transform="translate(-0.91)"><path d="M224.41,359.14v16.11a44.8,44.8,0,0,0,89.6,0V359.14Z" fill="#fff" fill-rule="evenodd"/></g></mask></defs><title>nicole2</title><rect x="234.13" y="336.67" width="224.41" height="208.79" fill="#503216"/><path d="M348.76,875.65c12.19,58.93,10.16,277.36,0,348.48" transform="translate(-0.91)" fill="none" stroke="#f6ddd6" stroke-linecap="round" stroke-linejoin="bevel" stroke-width="60.23"/><path d="M223.12,869.56c-12.18,58.92-10.15,277.36,0,348.48" transform="translate(-0.91)" fill="none" stroke="#f6ddd6" stroke-linecap="round" stroke-linejoin="bevel" stroke-width="60.23"/><path d="M88.82,657.22c0,68.07-34.53,116.83-50.77,161.54" transform="translate(-0.91)" fill="none" stroke="#fbe8e3" stroke-linecap="round" stroke-linejoin="bevel" stroke-width="74.28"/><polygon points="66.13 869.22 101.67 759.5 326.07 759.5 497.68 812.33 497.68 883.45 335.21 905.8 158.53 905.8 66.13 869.22" fill="#ceaf9a"/><polygon points="372.23 930.51 193.51 910.2 154.93 812.66 396.6 822.82 372.23 930.51" fill="#6a8ab9"/><polygon points="273.73 836.03 439.24 836.03 391.45 1170.29 304.18 1170.29 304.18 1010.54 273.73 836.03" fill="#6a8ab9"/><polygon points="126.5 839.08 274.75 839.08 258.5 1032.55 258.5 1165.21 179.3 1152.31 126.5 839.08" fill="#6a8ab9"/><path d="M60.69,652.22l59.83,23.56A14.05,14.05,0,0,1,128.45,694L119,718a14.06,14.06,0,0,1-18.23,7.93L41,702.32A14.05,14.05,0,0,1,33,684.1l9.43-24A14.07,14.07,0,0,1,60.69,652.22Z" transform="translate(-0.91)" fill="#e1c6b3"/><polygon points="122.44 748.65 445.33 748.65 440.26 841.16 124.47 841.16 122.44 748.65" fill="#5c7cac"/><path d="M181.33,765.58l7.11,74.17a7,7,0,0,0,14-1.34l-7.11-74.17a7,7,0,0,0-14,1.34Z" transform="translate(-0.91)" fill="#51709d"/><path d="M372.12,764.91,365,839.08" transform="translate(-0.91)" fill="none" stroke="#51709d" stroke-linecap="round" stroke-width="14.05"/><path d="M94.75,491a77,77,0,1,1,138.88,63.43l-68.1,109.41A70,70,0,0,1,90.9,695.19c-51.7-11.47-72.51-73.94-38-114.12L64,568.17a80,80,0,0,0,15.8-28.62Z" transform="translate(-0.91)" fill="#e1c6b3"/><rect x="154.93" y="440.81" width="234.56" height="330.19" rx="112.42" fill="#efd6c5"/><path d="M220.82,769.77C176.14,769.77,126.94,854,67,870.24c-12.18-65.92,23.54-121,34-171.37,8.7-42,20.31-79.63,20.31-122.13V489.36c25.72-12.87,78.39-51,75.14-20.1-4.06,38.61-6.09,107.48,83.26,107.48s38.56-87.38,99.52-87.38c85.29,0,130.52,350.4,122.4,387-6.5,29.26-31-28.91-45.23-45.38l-38.59-26.63-57.88-34.55C322,771.13,265.5,769.77,220.82,769.77Z" transform="translate(-0.91)" fill="#efd4c5"/><path d="M233.51,769.9H215.62a198.89,198.89,0,0,1-17.27-29.12c-16.08-32.76-25.8-71-25.8-108.4h14c0,35.16,9.19,71.3,24.36,102.21C218.14,749.21,226.28,761.58,233.51,769.9Zm134.67,0H349.31A62.09,62.09,0,0,0,364,749.36c6.53-14.11,8.91-30.36,6.37-41.89l13.72-3c3.25,14.72.42,34.06-7.34,50.82a83.8,83.8,0,0,1-8.58,14.63Zm-74.31,0h-16c4-5.9,5.31-10.65,5.52-17.44,0-1.2,0-2.18,0-4.46,0-6.88.17-10.27,1.07-15A61.26,61.26,0,0,1,292,713.63l12.17,7c-5.59,9.7-6.67,15.39-6.67,27.35,0,2.42,0,3.5-.05,4.9A44.44,44.44,0,0,1,293.87,769.9Z" transform="translate(-0.91)" fill="#ddc1ad"/><ellipse cx="443.86" cy="811.31" rx="91.39" ry="91.44" fill="#6c4d4b"/><circle cx="464.65" cy="817.08" r="83.31" transform="translate(-355.77 1277.42) rotate(-89.7)" fill="#8f5b47"/><path d="M555.45,818.42A91.39,91.39,0,1,1,464.06,727,91.42,91.42,0,0,1,555.45,818.42Zm-10,0a81.35,81.35,0,1,0-81.35,81.4A81.37,81.37,0,0,0,545.41,818.42Z" transform="translate(-0.91)" fill="#e3a490"/><path d="M228.64,503.27A70.61,70.61,0,0,1,316,454.84l89.74,25.73A70.6,70.6,0,1,1,366.8,616.31l-89.74-25.72A70.59,70.59,0,0,1,228.64,503.27Z" transform="translate(-0.91)" fill="#efd6c5"/><path d="M375.09,791.64,364.94,525.46a9.54,9.54,0,0,0-19.06.72L356,792.37a9.53,9.53,0,1,0,19-.73Z" transform="translate(-0.91)" fill="#e3a490"/><polygon points="352.4 801.99 372.71 806.06 374.88 795.23 354.57 791.17 352.4 801.99" fill="#e3a490"/><path d="M423.9,553.59c44.68,79.24,77.17,233.67,60.93,278.38" transform="translate(-0.91)" fill="none" stroke="#fbe8e3" stroke-linecap="round" stroke-linejoin="bevel" stroke-width="74.28"/><path d="M350.06,558.81a67.84,67.84,0,1,1,127.72-45.66l27,82.54A61,61,0,0,1,450,675.55l-3.11.16a69.75,69.75,0,0,1-68.68-44.44Z" transform="translate(-0.91)" fill="#e1c6b3"/><polygon points="170.16 1138.79 263.58 1138.79 260.53 1182.48 177.78 1182.48 170.16 1138.79" fill="#5c7cac"/><polygon points="301.15 1138.79 399.64 1138.79 390.5 1182.48 303.18 1182.48 301.15 1138.79" fill="#5c7cac"/><g mask="url(#a)"><path d="M258.32,753.91h46.85A20.07,20.07,0,0,1,325.25,774v64.15a20.08,20.08,0,0,1-20.08,20.08H258.32a20.07,20.07,0,0,1-20.07-20.08V774A20.06,20.06,0,0,1,258.32,753.91Zm8,28.1V830.1h30.79V782Z" transform="translate(-0.91)" fill="#51709d"/></g><path d="M426.3,654.11l60.8-20.93A14,14,0,0,1,505,641.89l8.38,24.34a14.06,14.06,0,0,1-8.72,17.86L443.82,705A14.06,14.06,0,0,1,426,696.3L417.58,672A14.06,14.06,0,0,1,426.3,654.11Z" transform="translate(-0.91)" fill="#e1c6b3"/><polygon points="318.44 1206.77 380.37 1207.85 372.8 1263.61 310.36 1262.51 318.44 1206.77" fill="#fff"/><path d="M319.57,1208.47a2,2,0,0,1,2-1.68l58.5,1a2,2,0,0,1,2,2.25l-.72,6.13a2,2,0,0,1-2,1.77l-58.81-1a2,2,0,0,1-1.94-2.34Z" transform="translate(-0.91)" fill="#ffa970"/><path d="M318.25,1225.69a2,2,0,0,1,2-1.66l58.5,1a2,2,0,0,1,2,2.25l-.72,6.13a2,2,0,0,1-2,1.77l-58.8-1a2,2,0,0,1-1.95-2.34Z" transform="translate(-0.91)" fill="#ffa970"/><path d="M347.78,1245.84c20.53.36,31-9.86,31.19-22.06h0l10.59.46,40.06,36.33,29.73,12.55a44.67,44.67,0,0,1,11.27,25.83l.37,4.11-170.45-7.22,2.74-40.6,9.19-34.36,8.25-1.78a12.29,12.29,0,0,0-.64,3.66C319.87,1235,333.16,1245.59,347.78,1245.84Z" transform="translate(-0.91)" fill="#4cb4d4" fill-rule="evenodd"/><path d="M350.52,1253.51c-30.47,2.65-30-18-40.74-22.56-5.21,8-8.66,30.84-8.83,40.5,27.67,15.21,71.62-1.3,151,20.41a5.62,5.62,0,0,0-1.13-10.53l-33.08-7.85C409.63,1270.63,381,1250.86,350.52,1253.51Z" transform="translate(-0.91)" fill="#ffc9c6"/><path d="M296.44,1301.07a18.81,18.81,0,0,1,18.25-13.13l52.47.92a18.79,18.79,0,0,1-.66,37.58l-52.46-.91A18.8,18.8,0,0,1,296.44,1301.07Z" transform="translate(-0.91)" fill="#d7e3ee"/><path d="M370.6,1296l62.94,1.1a11.19,11.19,0,0,1,11,11.37h0a11.18,11.18,0,0,1-11.37,11l-62.94-1.1a11.16,11.16,0,0,1-11-11.37h0A11.17,11.17,0,0,1,370.6,1296Z" transform="translate(-0.91)" fill="#d7e3ee"/><path d="M399.78,1311.25a14.72,14.72,0,0,1,15-14.45l47.61.84a13,13,0,0,1,.46,26l-47.54,2.53A14.71,14.71,0,0,1,399.78,1311.25Z" transform="translate(-0.91)" fill="#d7e3ee"/><path d="M326.88,1299.34l36.54.63a7.11,7.11,0,0,1,7,7.24h0a7.11,7.11,0,0,1-7.23,7l-36.54-.64a7.12,7.12,0,0,1-7-7.24h0A7.11,7.11,0,0,1,326.88,1299.34Z" transform="translate(-0.91)" fill="#b6c2d3"/><path d="M416.73,1309.34l12.18-.42a4.57,4.57,0,0,1,4.73,4.41h0a4.57,4.57,0,0,1-4.41,4.72l-12.18.43a4.58,4.58,0,0,1-4.73-4.41h0A4.58,4.58,0,0,1,416.73,1309.34Z" transform="translate(-0.91)" fill="#b6c2d3"/><path d="M443,1308.34l4.31-.15a4.56,4.56,0,0,1,4.73,4.41h0a4.56,4.56,0,0,1-4.41,4.72l-4.31.16a4.58,4.58,0,0,1-4.73-4.41h0A4.57,4.57,0,0,1,443,1308.34Z" transform="translate(-0.91)" fill="#b6c2d3"/><path d="M301.49,1298.89l4.06.07a7.11,7.11,0,0,1,7,7.24h0a7.1,7.1,0,0,1-7.23,7l-4.05-.07a7.12,7.12,0,0,1-7-7.24h0A7.12,7.12,0,0,1,301.49,1298.89Z" transform="translate(-0.91)" fill="#b6c2d3"/><polygon points="251.31 1205.68 189.41 1207.84 197.95 1263.46 260.36 1261.28 251.31 1205.68" fill="#fff"/><path d="M253.05,1207.37a2,2,0,0,0-2.05-1.65l-58.47,2a2,2,0,0,0-1.92,2.27l.82,6.12a2,2,0,0,0,2.06,1.74l58.78-2.05a2,2,0,0,0,1.91-2.38Z" transform="translate(-0.91)" fill="#ffa970"/><path d="M253.65,1224.55a2,2,0,0,0-2.05-1.64l-58.47,2a2,2,0,0,0-1.92,2.28l.82,6.11a2,2,0,0,0,2.06,1.75l58.78-2.06a2,2,0,0,0,1.91-2.37Z" transform="translate(-0.91)" fill="#ffa970"/><path d="M224.47,1245.21c-20.52.71-31.14-9.32-31.57-21.51v0l-10.59.65-39.41,37-29.51,13.08a44.69,44.69,0,0,0-10.82,26l-.3,4.11,170.31-10.2-3.45-40.54-9.79-34.2-8.28-1.62a11.93,11.93,0,0,1,.7,3.65C252.19,1233.84,239.08,1244.7,224.47,1245.21Z" transform="translate(-0.91)" fill="#4cb4d4" fill-rule="evenodd"/><path d="M221.86,1252.93c30.52,2.12,29.67-18.49,40.34-23.27,5.36,7.94,9.2,30.69,9.54,40.33-27.4,15.7-71.64,0-150.59,23a5.62,5.62,0,0,1,.95-10.55l32.93-8.42C163.06,1271.08,191.35,1250.81,221.86,1252.93Z" transform="translate(-0.91)" fill="#ffc9c6"/><path d="M276.76,1299.53a18.79,18.79,0,0,0-18.47-12.81l-52.45,1.83a18.8,18.8,0,0,0,1.32,37.57l52.44-1.82A18.8,18.8,0,0,0,276.76,1299.53Z" transform="translate(-0.91)" fill="#d7e3ee"/><path d="M202.52,1295.79l-62.9,2.19a11.18,11.18,0,0,0-10.78,11.56h0a11.17,11.17,0,0,0,11.56,10.78l62.9-2.19a11.18,11.18,0,0,0,10.78-11.56h0A11.17,11.17,0,0,0,202.52,1295.79Z" transform="translate(-0.91)" fill="#d7e3ee"/><path d="M173.61,1311.51a14.7,14.7,0,0,0-15.2-14.18L110.82,1299a13,13,0,0,0,0,26l47.59,1.71A14.7,14.7,0,0,0,173.61,1311.51Z" transform="translate(-0.91)" fill="#d7e3ee"/><path d="M246.3,1298.33l-36.52,1.27a7.11,7.11,0,0,0-6.86,7.36h0a7.12,7.12,0,0,0,7.36,6.86l36.52-1.28a7.11,7.11,0,0,0,6.86-7.35h0A7.11,7.11,0,0,0,246.3,1298.33Z" transform="translate(-0.91)" fill="#b6c2d3"/><path d="M156.63,1309.9l-12.18-.21a4.58,4.58,0,0,0-4.65,4.49h0a4.57,4.57,0,0,0,4.49,4.65l12.18.21a4.56,4.56,0,0,0,4.65-4.49h0A4.57,4.57,0,0,0,156.63,1309.9Z" transform="translate(-0.91)" fill="#b6c2d3"/><path d="M130.36,1309.35l-4.31-.07a4.56,4.56,0,0,0-4.65,4.49h0a4.58,4.58,0,0,0,4.49,4.65l4.31.07a4.56,4.56,0,0,0,4.65-4.49h0A4.56,4.56,0,0,0,130.36,1309.35Z" transform="translate(-0.91)" fill="#b6c2d3"/><path d="M271.67,1297.44l-4.05.14a7.12,7.12,0,0,0-6.86,7.36h0a7.12,7.12,0,0,0,7.36,6.86l4.05-.14a7.11,7.11,0,0,0,6.86-7.36h0A7.12,7.12,0,0,0,271.67,1297.44Z" transform="translate(-0.91)" fill="#b6c2d3"/><ellipse cx="273.22" cy="486.02" rx="69.56" ry="72.64" fill="#dfc5b2"/><rect x="232.1" y="417.45" width="78.5" height="117.81" rx="39.25" fill="#eed1c9"/><path d="M123.37,324.09,280.49,302a73.3,73.3,0,0,1,82.79,62.39h0a73.3,73.3,0,0,1-62.4,82.79L143.77,469.27A73.3,73.3,0,0,1,61,406.88h0A73.3,73.3,0,0,1,123.37,324.09Z" transform="translate(-0.91)" fill="#503216"/><ellipse cx="112.67" cy="285.25" rx="59.31" ry="56.29" fill="#ebbaaa"/><path d="M412.36,213.32C393.85,136.12,314.05,96.45,283.12,87,269,60.56,271,5.83,293.21,1.64c32.28-6.1,119,32.5,157.33,107.68,48.19,94.51,41.57,330.29,29.94,413.6-15-32-29.94-61.39-78.11-56.57,24.33-107.68,10-186,10-186S422.59,256,412.36,213.32Z" transform="translate(-0.91)" fill="#62360d"/><ellipse cx="408.94" cy="285.84" rx="59.31" ry="56.29" fill="#ebbaaa"/><path d="M109.67,178.4c0-81.69,70-147.92,156.37-147.92S422.42,96.71,422.42,178.4V325.53C409.81,421,334.14,473.45,266,473.45S118.92,409.83,109.67,325.53Z" transform="translate(-0.91)" fill="#f6ddd6"/><path d="M224.41,359.14v16.11a44.8,44.8,0,0,0,89.6,0V359.14Z" transform="translate(-0.91)" fill="#393939" fill-rule="evenodd"/><g mask="url(#b)"><ellipse cx="268.01" cy="416.57" rx="31.12" ry="17.06" fill="#ff6c6c"/></g><g mask="url(#c)"><rect x="221.83" y="357.35" width="97.37" height="20.08" fill="#fff"/></g><path d="M273.5,3.63C310-13.15,404.3,29.07,447,112.83c0,0,23.14,50.53,28.81,85.45,5.59,34.46-12.75,51.89-12.75,51.89l-40.61-21.94S392,180.77,353.37,148.45s-71.48-41.63-81.56-48.75S260.54,31.1,273.5,3.63Z" transform="translate(-0.91)" fill="#62360d"/><path d="M167.6,225.78l57.51-2.52a6,6,0,0,0-.53-12l-57.51,2.51a6,6,0,0,0,.53,12Z" transform="translate(-0.91)" fill="#62360d"/><ellipse cx="164.56" cy="332.64" rx="31.99" ry="32" fill="#f2caca"/><path d="M161,214.68c12.48-54.91,74.67-107.45,104.11-116.94C277.21,93.82,285.33,0,265.07,0c-51.3,0-132.68,51.61-161.72,97.74C55.67,173.49,38.8,258.42,64.19,449.58c6.21,46.77-8.95,67.11-19.51,78.3,29.13,29.9,138.26,40.67,138.26,40.67s18.37-22.84,5.86-68.13C166.21,418.63,148.48,269.59,161,214.68Z" transform="translate(-0.91)" fill="#7d430d"/><path d="M118.87,102.58c-11.29,14.69-24.58,41.34-34.78,70.75C72,208.07,65,243.87,65,276.32a5,5,0,1,0,10,0c0-31.23,6.8-65.95,18.51-99.7,9.88-28.47,22.7-54.19,33.25-67.92a5,5,0,1,0-7.95-6.12Z" transform="translate(-0.91)" fill="#ad6817"/><path d="M121.19,150.61c-13.7,36.55-16.84,45.87-22.49,67.55a5,5,0,1,0,9.71,2.53c5.55-21.27,8.6-30.31,22.18-66.56a5,5,0,1,0-9.4-3.52Z" transform="translate(-0.91)" fill="#ad6817"/><path d="M185.89,271.36l27-4.28a5,5,0,1,0-1.56-9.91l-27,4.27a5,5,0,0,0,1.57,9.92Z" transform="translate(-0.91)"/><path d="M314.28,264.47l27,4.27a5,5,0,1,0,1.57-9.91l-27-4.28a5,5,0,1,0-1.56,9.92Z" transform="translate(-0.91)"/><path d="M207,262.13V291" transform="translate(-0.91)" fill="none" stroke="#000" stroke-linecap="round" stroke-width="24.09"/><path d="M321.28,259.51V288.4" transform="translate(-0.91)" fill="none" stroke="#000" stroke-linecap="round" stroke-width="24.09"/><path d="M302.38,221.39l57.46,3.52a6,6,0,0,0,.73-12l-57.46-3.51a6,6,0,1,0-.73,12Z" transform="translate(-0.91)" fill="#62360d"/><path d="M261.18,291.35c-2,14.84-14.83,41.89,7,41.89" transform="translate(-0.91)" fill="none" stroke="#ebbaaa" stroke-width="17.06"/><ellipse cx="433.48" cy="341.98" rx="12.21" ry="12.22" fill="#f6e7d6"/><ellipse cx="429.9" cy="366.84" rx="8.63" ry="8.64" fill="#f6e7d6"/><ellipse cx="365.61" cy="332.64" rx="31.99" ry="32" fill="#f2caca"/></svg>