<?xml version="1.0" standalone="no"?>
<!DOCTYPE svg PUBLIC "-//W3C//DTD SVG 1.1//EN"
"http://www.w3.org/Graphics/SVG/1.1/DTD/svg11.dtd">

<svg width="426" height="798" view_box="0 0 426 798"
xmlns="http://www.w3.org/2000/svg"
xmlns:link="http://www.w3.org/1999/xlink">\n\n<desc>Généré par Mocodo 2.3.7 le Tue, 05 May 2020 15:00:19</desc>

<rect id="frame" x="0" y="0" width="426" height="798" fill="#f7f7f7" stroke="none" stroke-width="0"/>

<!-- Association CATALOG -->
<line x1="95" y1="260" x2="251" y2="260" stroke="#7fbc41" stroke-width="1"/>
<text x="186" y="276.0" fill="#c51b7d" font-family="Courier New" font-size="12">1,N</text>
<line x1="369" y1="260" x2="251" y2="260" stroke="#7fbc41" stroke-width="1"/>
<text x="293" y="276.0" fill="#c51b7d" font-family="Courier New" font-size="12">1,N</text>
<line x1="251" y1="606" x2="251" y2="260" stroke="#7fbc41" stroke-width="1"/>
<text x="256.0" y="527" fill="#c51b7d" font-family="Courier New" font-size="12">1,N</text>
<g id="association-CATALOG">
	<path d="M 274 234 a 14 14 90 0 1 14 14 V 260 h -74 V 248 a 14 14 90 0 1 14 -14" fill="#b8e186" stroke="#b8e186" stroke-width="0"/>
	<path d="M 288 260.0 v 12 a 14 14 90 0 1 -14 14 H 228 a 14 14 90 0 1 -14 -14 V 260.0 H 74" fill="#e6f5d0" stroke="#e6f5d0" stroke-width="0"/>
	<rect x="214" y="234" width="74" height="52" fill="none" rx="14" stroke="#7fbc41" stroke-width="1.5"/>
	<line x1="214" y1="260" x2="288" y2="260" stroke="#7fbc41" stroke-width="1"/>
	<text x="221" y="252.6" fill="#000000" font-family="Courier New" font-size="14">CATALOG</text>
</g>

<!-- Association HAS -->
<line x1="369" y1="260" x2="369" y2="606" stroke="#7fbc41" stroke-width="1"/>
<text x="374.0" y="320" fill="#c51b7d" font-family="Courier New" font-size="12">1,1</text>
<line x1="369" y1="745" x2="369" y2="606" stroke="#7fbc41" stroke-width="1"/>
<text x="374.0" y="693" fill="#c51b7d" font-family="Courier New" font-size="12">0,N</text>
<g id="association-HAS">
	<path d="M 375 580 a 14 14 90 0 1 14 14 V 606 h -40 V 594 a 14 14 90 0 1 14 -14" fill="#b8e186" stroke="#b8e186" stroke-width="0"/>
	<path d="M 389 606.0 v 12 a 14 14 90 0 1 -14 14 H 363 a 14 14 90 0 1 -14 -14 V 606.0 H 40" fill="#e6f5d0" stroke="#e6f5d0" stroke-width="0"/>
	<rect x="349" y="580" width="40" height="52" fill="none" rx="14" stroke="#7fbc41" stroke-width="1.5"/>
	<line x1="349" y1="606" x2="389" y2="606" stroke="#7fbc41" stroke-width="1"/>
	<text x="356" y="598.6" fill="#000000" font-family="Courier New" font-size="14">HAS</text>
</g>

<!-- Association WHERE1 -->
<line x1="95" y1="260" x2="95" y2="606" stroke="#7fbc41" stroke-width="1"/>
<text x="100.0" y="527" fill="#c51b7d" font-family="Courier New" font-size="12">1,1</text>
<line x1="95" y1="745" x2="95" y2="606" stroke="#7fbc41" stroke-width="1"/>
<text x="100.0" y="711" fill="#c51b7d" font-family="Courier New" font-size="12">0,N</text>
<g id="association-WHERE1">
	<path d="M 110 580 a 14 14 90 0 1 14 14 V 606 h -58 V 594 a 14 14 90 0 1 14 -14" fill="#b8e186" stroke="#b8e186" stroke-width="0"/>
	<path d="M 124 606.0 v 12 a 14 14 90 0 1 -14 14 H 80 a 14 14 90 0 1 -14 -14 V 606.0 H 58" fill="#e6f5d0" stroke="#e6f5d0" stroke-width="0"/>
	<rect x="66" y="580" width="58" height="52" fill="none" rx="14" stroke="#7fbc41" stroke-width="1.5"/>
	<line x1="66" y1="606" x2="124" y2="606" stroke="#7fbc41" stroke-width="1"/>
	<text x="73" y="598.6" fill="#000000" font-family="Courier New" font-size="14">WHERE</text>
</g>

<!-- Association WHERE2 -->
<line x1="251" y1="606" x2="251" y2="745" stroke="#7fbc41" stroke-width="1"/>
<text x="256.0" y="693" fill="#c51b7d" font-family="Courier New" font-size="12">1,1</text>
<line x1="95" y1="745" x2="251" y2="745" stroke="#7fbc41" stroke-width="1"/>
<text x="131" y="761.0" fill="#c51b7d" font-family="Courier New" font-size="12">0,N</text>
<g id="association-WHERE2">
	<path d="M 266 719 a 14 14 90 0 1 14 14 V 745 h -58 V 733 a 14 14 90 0 1 14 -14" fill="#b8e186" stroke="#b8e186" stroke-width="0"/>
	<path d="M 280 745.0 v 12 a 14 14 90 0 1 -14 14 H 236 a 14 14 90 0 1 -14 -14 V 745.0 H 58" fill="#e6f5d0" stroke="#e6f5d0" stroke-width="0"/>
	<rect x="222" y="719" width="58" height="52" fill="none" rx="14" stroke="#7fbc41" stroke-width="1.5"/>
	<line x1="222" y1="745" x2="280" y2="745" stroke="#7fbc41" stroke-width="1"/>
	<text x="229" y="737.6" fill="#000000" font-family="Courier New" font-size="14">WHERE</text>
</g>

<!-- Entity LOCALSUPPLIER -->
<g id="entity-LOCALSUPPLIER">
	<g id="frame-LOCALSUPPLIER">
		<rect x="191" y="535" width="120" height="26" fill="#f1b6da" stroke="#f1b6da" stroke-width="0"/>
		<rect x="191" y="561.0" width="120" height="116" fill="#fde0ef" stroke="#fde0ef" stroke-width="0"/>
		<rect x="191" y="535" width="120" height="142" fill="none" stroke="#de77ae" stroke-width="1.5"/>
		<line x1="191" y1="561" x2="311" y2="561" stroke="#de77ae" stroke-width="1"/>
	</g>
	<text x="196" y="553.6" fill="#000000" font-family="Courier New" font-size="14">LOCALSUPPLIER</text>
	<text x="196" y="579.6" fill="#000000" font-family="Courier New" font-size="14">name</text>
	<line x1="196" y1="582.0" x2="231" y2="582.0" stroke="#000000" stroke-width="1"/>
	<text x="196" y="597.6" fill="#000000" font-family="Courier New" font-size="14">siret</text>
	<text x="196" y="615.6" fill="#000000" font-family="Courier New" font-size="14">postal_code</text>
	<text x="196" y="633.6" fill="#000000" font-family="Courier New" font-size="14">city</text>
	<text x="196" y="651.6" fill="#000000" font-family="Courier New" font-size="14">created_at</text>
	<text x="196" y="669.6" fill="#000000" font-family="Courier New" font-size="14">updated_at</text>
</g>

<!-- Entity CATEGORY -->
<g id="entity-CATEGORY">
	<g id="frame-CATEGORY">
		<rect x="321" y="701" width="96" height="26" fill="#f1b6da" stroke="#f1b6da" stroke-width="0"/>
		<rect x="321" y="727.0" width="96" height="62" fill="#fde0ef" stroke="#fde0ef" stroke-width="0"/>
		<rect x="321" y="701" width="96" height="88" fill="none" stroke="#de77ae" stroke-width="1.5"/>
		<line x1="321" y1="727" x2="417" y2="727" stroke="#de77ae" stroke-width="1"/>
	</g>
	<text x="335" y="719.6" fill="#000000" font-family="Courier New" font-size="14">CATEGORY</text>
	<text x="326" y="745.6" fill="#000000" font-family="Courier New" font-size="14">name</text>
	<line x1="326" y1="748.0" x2="361" y2="748.0" stroke="#000000" stroke-width="1"/>
	<text x="326" y="763.6" fill="#000000" font-family="Courier New" font-size="14">created_at</text>
	<text x="326" y="781.6" fill="#000000" font-family="Courier New" font-size="14">updated_at</text>
</g>

<!-- Entity PRODUCT -->
<g id="entity-PRODUCT">
	<g id="frame-PRODUCT">
		<rect x="321" y="216" width="96" height="26" fill="#f1b6da" stroke="#f1b6da" stroke-width="0"/>
		<rect x="321" y="242.0" width="96" height="62" fill="#fde0ef" stroke="#fde0ef" stroke-width="0"/>
		<rect x="321" y="216" width="96" height="88" fill="none" stroke="#de77ae" stroke-width="1.5"/>
		<line x1="321" y1="242" x2="417" y2="242" stroke="#de77ae" stroke-width="1"/>
	</g>
	<text x="339" y="234.6" fill="#000000" font-family="Courier New" font-size="14">PRODUCT</text>
	<text x="326" y="260.6" fill="#000000" font-family="Courier New" font-size="14">name</text>
	<line x1="326" y1="263.0" x2="361" y2="263.0" stroke="#000000" stroke-width="1"/>
	<text x="326" y="278.6" fill="#000000" font-family="Courier New" font-size="14">created_at</text>
	<text x="326" y="296.6" fill="#000000" font-family="Courier New" font-size="14">updated_at</text>
</g>

<!-- Entity REGION -->
<g id="entity-REGION">
	<g id="frame-REGION">
		<rect x="64" y="719" width="62" height="26" fill="#f1b6da" stroke="#f1b6da" stroke-width="0"/>
		<rect x="64" y="745.0" width="62" height="26" fill="#fde0ef" stroke="#fde0ef" stroke-width="0"/>
		<rect x="64" y="719" width="62" height="52" fill="none" stroke="#de77ae" stroke-width="1.5"/>
		<line x1="64" y1="745" x2="126" y2="745" stroke="#de77ae" stroke-width="1"/>
	</g>
	<text x="69" y="737.6" fill="#000000" font-family="Courier New" font-size="14">REGION</text>
	<text x="69" y="763.6" fill="#000000" font-family="Courier New" font-size="14">name</text>
	<line x1="69" y1="766.0" x2="104" y2="766.0" stroke="#000000" stroke-width="1"/>
</g>

<!-- Entity USER -->
<g id="entity-USER">
	<g id="frame-USER">
		<rect x="9" y="9" width="172" height="26" fill="#f1b6da" stroke="#f1b6da" stroke-width="0"/>
		<rect x="9" y="35.0" width="172" height="476" fill="#fde0ef" stroke="#fde0ef" stroke-width="0"/>
		<rect x="9" y="9" width="172" height="502" fill="none" stroke="#de77ae" stroke-width="1.5"/>
		<line x1="9" y1="35" x2="181" y2="35" stroke="#de77ae" stroke-width="1"/>
	</g>
	<text x="77" y="27.6" fill="#000000" font-family="Courier New" font-size="14">USER</text>
	<text x="14" y="53.6" fill="#000000" font-family="Courier New" font-size="14">email</text>
	<line x1="14" y1="56.0" x2="57" y2="56.0" stroke="#000000" stroke-width="1"/>
	<text x="14" y="71.6" fill="#000000" font-family="Courier New" font-size="14">firstname</text>
	<text x="14" y="89.6" fill="#000000" font-family="Courier New" font-size="14">lastname</text>
	<text x="14" y="107.6" fill="#000000" font-family="Courier New" font-size="14">password</text>
	<text x="14" y="125.6" fill="#000000" font-family="Courier New" font-size="14">is_mail_checked</text>
	<text x="14" y="143.6" fill="#000000" font-family="Courier New" font-size="14">role</text>
	<text x="14" y="161.6" fill="#000000" font-family="Courier New" font-size="14">is_active</text>
	<text x="14" y="179.6" fill="#000000" font-family="Courier New" font-size="14">additional_adress</text>
	<text x="14" y="197.6" fill="#000000" font-family="Courier New" font-size="14">repeat_index</text>
	<text x="14" y="215.6" fill="#000000" font-family="Courier New" font-size="14">way_number</text>
	<text x="14" y="233.6" fill="#000000" font-family="Courier New" font-size="14">way_type</text>
	<text x="14" y="251.6" fill="#000000" font-family="Courier New" font-size="14">way_name</text>
	<text x="14" y="269.6" fill="#000000" font-family="Courier New" font-size="14">postal_code</text>
	<text x="14" y="287.6" fill="#000000" font-family="Courier New" font-size="14">city</text>
	<text x="14" y="305.6" fill="#000000" font-family="Courier New" font-size="14">siret</text>
	<text x="14" y="323.6" fill="#000000" font-family="Courier New" font-size="14">company_name</text>
	<text x="14" y="341.6" fill="#000000" font-family="Courier New" font-size="14">company_description</text>
	<text x="14" y="359.6" fill="#000000" font-family="Courier New" font-size="14">logo_picture</text>
	<text x="14" y="377.6" fill="#000000" font-family="Courier New" font-size="14">folder_picture</text>
	<text x="14" y="395.6" fill="#000000" font-family="Courier New" font-size="14">phone</text>
	<text x="14" y="413.6" fill="#000000" font-family="Courier New" font-size="14">website</text>
	<text x="14" y="431.6" fill="#000000" font-family="Courier New" font-size="14">contact</text>
	<text x="14" y="449.6" fill="#000000" font-family="Courier New" font-size="14">passwordRequestedAt</text>
	<text x="14" y="467.6" fill="#000000" font-family="Courier New" font-size="14">token</text>
	<text x="14" y="485.6" fill="#000000" font-family="Courier New" font-size="14">created_at</text>
	<text x="14" y="503.6" fill="#000000" font-family="Courier New" font-size="14">updated_at</text>
</g>
</svg>